<svg width="120" height="120" viewBox="0 0 120 120" fill="none" xmlns="http://www.w3.org/2000/svg">
<path d="M0 60C0 26.8629 26.8629 0 60 0C93.1371 0 120 26.8629 120 60C120 93.1371 93.1371 120 60 120C26.8629 120 0 93.1371 0 60Z" fill="#FFF9DB"/>
<path d="M3.2876 60C3.2876 28.6786 28.6786 3.28766 59.9999 3.28766C91.3213 3.28766 116.712 28.6786 116.712 60C116.712 91.3213 91.3213 116.712 59.9999 116.712C28.6786 116.712 3.2876 91.3213 3.2876 60Z" fill="black"/>
<path d="M6.57617 60C6.57617 30.4943 30.4952 6.5753 60.0008 6.5753C89.5065 6.5753 113.425 30.4943 113.425 60C113.425 89.5056 89.5065 113.425 60.0008 113.425C30.4952 113.425 6.57617 89.5056 6.57617 60Z" fill="#FFF9DB"/>
<path d="M80.1919 36.1644C80.1919 45.8065 71.6734 53.8904 60.822 53.8904C49.9706 53.8904 41.4521 45.8065 41.4521 36.1644C41.4521 26.5223 49.9706 18.4384 60.822 18.4384C71.6734 18.4384 80.1919 26.5223 80.1919 36.1644Z" stroke="black" stroke-width="4"/>
<path d="M98.2276 98.3782C91.0837 105.675 79.9746 113.454 60.3224 114.47C41.9684 114.12 30.8843 107.626 21.7784 99.0368C22.2933 80.3222 39.8246 63.7647 60.3551 63.7647C80.9055 63.7647 97.76 79.6661 98.2276 98.3782Z" stroke="black" stroke-width="4"/>
</svg>
