<svg width="300" height="300" viewBox="0 0 300 300" fill="none" xmlns="http://www.w3.org/2000/svg">
    <circle cx="150" cy="150" r="150" fill="#FFF9DB"/>
    <circle cx="150" cy="150" r="136" fill="#FFF9DB" stroke="black" stroke-width="8"/>
    <path d="M176.069 150.682C177.25 147.924 177.25 147.924 177.25 147.924L177.25 147.924L177.251 147.924L177.252 147.925L177.258 147.928L177.28 147.937L177.358 147.97C177.425 147.999 177.521 148.041 177.64 148.093C177.878 148.198 178.21 148.344 178.586 148.514C179.322 148.847 180.29 149.298 181.058 149.707C183.796 151.162 185.213 152.239 187.455 153.942C187.546 154.01 187.637 154.08 187.731 154.15C188.055 154.396 188.393 154.663 188.736 154.941V142.587L163.516 131.361L137.439 142.612V154.238C138.572 153.268 139.865 152.281 140.99 151.48C142.05 150.727 143.184 149.978 143.912 149.638C144.086 149.557 144.308 149.446 144.573 149.314C145.306 148.948 146.368 148.418 147.632 147.903C147.846 147.816 148.043 147.735 148.228 147.658C149.324 147.206 150.037 146.912 151.615 146.516L152.344 149.426L151.615 146.516C153.388 146.072 156.781 145.367 158.785 145.184C160.467 145.029 161.607 145.081 162.924 145.141C163.161 145.152 163.403 145.163 163.656 145.174C165.616 145.253 166.836 145.31 168.908 145.623C170.572 145.875 171.596 146.061 173.298 146.538C174.133 146.772 175.121 147.12 175.851 147.389C176.227 147.527 176.555 147.652 176.79 147.743C176.908 147.788 177.002 147.825 177.069 147.851L177.146 147.882L177.167 147.89L177.173 147.893L177.175 147.893L177.176 147.894L177.176 147.894C177.176 147.894 177.177 147.894 176.069 150.682ZM176.069 150.682L177.25 147.924L177.213 147.908L177.177 147.894L176.069 150.682Z" fill="#FCC419" stroke="black" stroke-width="6"/>
    <path d="M164.762 123.256L163.552 122.713L162.336 123.244L129.545 137.548C129.464 137.536 129.378 137.524 129.286 137.51C128.587 137.407 127.585 137.255 126.382 137.061C123.973 136.674 120.774 136.123 117.587 135.466C114.469 134.823 111.46 134.099 109.228 133.353C110.617 132.61 112.397 131.74 114.49 130.773C119.959 128.248 127.289 125.19 134.663 122.224C142.027 119.262 149.396 116.409 154.926 114.295C157.691 113.238 159.994 112.367 161.606 111.76C162.208 111.533 162.713 111.343 163.11 111.195C163.478 111.327 163.938 111.493 164.481 111.69C166.012 112.244 168.199 113.043 170.824 114.019C176.075 115.972 183.066 118.631 190.038 121.458C197.027 124.292 203.933 127.269 209.044 129.86C211.615 131.164 213.627 132.317 214.948 133.26C215.1 133.368 215.236 133.469 215.359 133.563C215.044 133.755 214.634 133.968 214.114 134.192C212.262 134.991 209.676 135.662 206.915 136.196C204.191 136.723 201.457 137.087 199.392 137.319C198.362 137.435 197.507 137.518 196.911 137.571C196.85 137.576 196.792 137.581 196.736 137.586L164.762 123.256ZM216.251 134.386C216.249 134.385 216.235 134.367 216.214 134.333C216.242 134.369 216.253 134.386 216.251 134.386ZM216.093 132.99C216.096 132.984 216.099 132.981 216.099 132.981C216.099 132.981 216.097 132.984 216.093 132.99Z" fill="#FCC419" stroke="black" stroke-width="6"/>
    <path d="M205.956 127.495V146.998H201.689V125.703L205.956 127.495Z" fill="#FCC419" stroke="black" stroke-width="2"/>
    <rect x="199.003" y="147.497" width="9.63846" height="14.738" rx="1" fill="#FCC419" stroke="black" stroke-width="2"/>
    <circle cx="70" cy="73" r="10" fill="#FCC419"/>
    <line x1="210" y1="144" x2="225" y2="144" stroke="#FCC419" stroke-width="4"/>
    <line x1="210" y1="124" x2="230" y2="124" stroke="#FCC419" stroke-width="4"/>
    <line x1="98" y1="143" x2="115" y2="143" stroke="#FCC419" stroke-width="4"/>
    <line x1="95" y1="124" x2="113" y2="124" stroke="#FCC419" stroke-width="4"/>
    <path d="M77.655 75.2275C77.6315 75.2068 77.618 75.1916 77.6112 75.183C77.6043 75.1745 77.6016 75.1697 77.601 75.1687C77.601 75.1686 77.6009 75.1686 77.6009 75.1686C77.6007 75.1682 77.5997 75.1668 77.5985 75.1597C77.5944 75.136 77.5926 75.0621 77.6357 74.9665C77.665 74.9016 77.6972 74.8657 77.7143 74.8497C77.7204 74.85 77.7281 74.8505 77.7375 74.8515C78.6612 75.4626 80.4897 76.7237 82.3613 78.2973C84.3255 79.9488 86.0661 81.7219 86.9864 83.28C90.8116 89.7559 97.0507 97.5 106.555 97.5H214.539C225.234 97.5 233.103 107.517 230.57 117.907L220.82 157.907C219.018 165.299 212.397 170.5 204.789 170.5H120.84C113.178 170.5 106.535 165.253 104.769 157.803C101.848 145.481 97.654 127.868 94.0525 113.058C92.2521 105.655 90.5974 98.9427 89.3229 93.9392C88.6863 91.4398 88.1405 89.3508 87.7168 87.8096C87.5056 87.0413 87.319 86.3879 87.1628 85.8789C87.042 85.4849 86.8538 84.8814 86.6305 84.4348C86.2421 83.658 85.6167 82.8998 85.1066 82.3222C84.5324 81.6719 83.8276 80.9472 83.0592 80.1944C81.5186 78.6848 79.5931 76.9358 77.655 75.2275ZM77.6969 74.8499C77.6956 74.8501 77.6949 74.8501 77.6949 74.8501L77.6969 74.8499Z" stroke="#FCC419" stroke-width="7"/>
    <path d="M220 196.5C220 196.5 111.998 196.501 105.5 196.5C99.0018 196.499 89.4986 196.999 89 184.999C88.5014 173 99.5032 170.499 103 170.499C106.497 170.499 132.004 170.5 132.004 170.5" stroke="#FCC419" stroke-width="7"/>
    <circle cx="219.5" cy="196.5" r="3.5" fill="#FCC419"/>
    <circle cx="115" cy="143" r="2" fill="#FCC419"/>
    <circle cx="115" cy="143" r="2" fill="#FCC419"/>
    <circle cx="115" cy="143" r="2" fill="#FCC419"/>
    <circle cx="115" cy="143" r="2" fill="#FCC419"/>
    <circle cx="210" cy="124" r="2" fill="#FCC419"/>
    <circle cx="210" cy="124" r="2" fill="#FCC419"/>
    <circle cx="210" cy="124" r="2" fill="#FCC419"/>
    <circle cx="210" cy="124" r="2" fill="#FCC419"/>
    <circle cx="210" cy="144" r="2" fill="#FCC419"/>
    <circle cx="210" cy="144" r="2" fill="#FCC419"/>
    <circle cx="210" cy="144" r="2" fill="#FCC419"/>
    <circle cx="210" cy="144" r="2" fill="#FCC419"/>
    <circle cx="113" cy="124" r="2" fill="#FCC419"/>
    <circle cx="113" cy="124" r="2" fill="#FCC419"/>
    <circle cx="113" cy="124" r="2" fill="#FCC419"/>
    <circle cx="113" cy="124" r="2" fill="#FCC419"/>
    <circle cx="109.5" cy="220.5" r="17.5" fill="#FCC419"/>
    <circle cx="206.5" cy="220.5" r="17.5" fill="#FCC419"/>
</svg>