<svg width="300" height="300" viewBox="0 0 300 300" fill="none" xmlns="http://www.w3.org/2000/svg">
<circle cx="150" cy="150" r="150" fill="#FFF9DB"/>
<circle cx="150" cy="150" r="136" fill="#FFF9DB" stroke="black" stroke-width="8"/>
<path d="M188.736 142.587V154.94C188.565 154.802 188.395 154.667 188.227 154.535L187.731 154.15C185.626 152.553 184.276 151.508 182.064 150.257L181.058 149.707C180.29 149.298 179.322 148.847 178.587 148.514C178.21 148.344 177.878 148.198 177.64 148.093C177.521 148.041 177.425 147.999 177.358 147.97C177.325 147.956 177.298 147.945 177.28 147.937C177.271 147.933 177.263 147.93 177.258 147.927C177.256 147.926 177.254 147.926 177.253 147.925L177.251 147.924H177.25L176.069 150.682L177.25 147.923L177.214 147.909L177.176 147.894L176.457 149.707C177.177 147.894 177.176 147.893 177.176 147.893H177.175L177.173 147.892C177.172 147.892 177.17 147.891 177.168 147.89C177.162 147.888 177.155 147.885 177.146 147.881C177.128 147.874 177.102 147.864 177.069 147.851C177.003 147.825 176.907 147.788 176.79 147.743C176.555 147.652 176.227 147.527 175.851 147.389C175.303 147.188 174.611 146.941 173.947 146.732L173.297 146.538C172.021 146.18 171.126 145.986 170.056 145.805L168.908 145.624C167.354 145.389 166.279 145.297 165.012 145.233L163.656 145.173C162.206 145.115 161.084 145.028 159.497 145.129L158.785 145.183C157.032 145.344 154.215 145.905 152.35 146.339L151.616 146.516C150.231 146.863 149.513 147.133 148.618 147.499L147.632 147.903C146.341 148.428 145.262 148.97 144.527 149.337L143.912 149.638C143.184 149.979 142.049 150.727 140.99 151.48C139.865 152.28 138.572 153.268 137.439 154.238V142.611L163.516 131.36L188.736 142.587Z" fill="#FCC419" stroke="black" stroke-width="6"/>
<path d="M164.481 111.689C166.012 112.244 168.2 113.043 170.824 114.02C176.076 115.973 183.066 118.631 190.038 121.458C197.027 124.292 203.933 127.269 209.044 129.86C211.615 131.164 213.627 132.317 214.948 133.26C215.099 133.367 215.234 133.469 215.356 133.562C215.042 133.754 214.633 133.969 214.114 134.192C212.263 134.991 209.677 135.662 206.915 136.196C204.191 136.723 201.457 137.087 199.392 137.319C198.362 137.435 197.507 137.518 196.911 137.571C196.85 137.577 196.791 137.581 196.735 137.586L164.762 123.256L163.552 122.713L162.336 123.243L129.545 137.548C129.464 137.536 129.378 137.524 129.286 137.511C128.587 137.407 127.585 137.255 126.383 137.062C123.973 136.674 120.774 136.123 117.587 135.466C114.47 134.823 111.464 134.097 109.232 133.352C110.62 132.609 112.399 131.739 114.49 130.773C119.959 128.248 127.289 125.189 134.663 122.224C142.027 119.262 149.396 116.409 154.927 114.295C157.691 113.238 159.994 112.367 161.605 111.76C162.207 111.533 162.713 111.343 163.109 111.194C163.477 111.327 163.938 111.492 164.481 111.689Z" fill="#FCC419" stroke="black" stroke-width="6"/>
<path d="M205.955 127.495V146.999H201.689V125.703L205.955 127.495Z" fill="#FCC419" stroke="black" stroke-width="2"/>
<rect x="199.003" y="147.497" width="9.63846" height="14.738" rx="1" fill="#FCC419" stroke="black" stroke-width="2"/>
<circle cx="70" cy="73" r="10" fill="#FCC419"/>
<line x1="210" y1="144" x2="225" y2="144" stroke="#FCC419" stroke-width="4"/>
<line x1="210" y1="124" x2="230" y2="124" stroke="#FCC419" stroke-width="4"/>
<line x1="98" y1="143" x2="115" y2="143" stroke="#FCC419" stroke-width="4"/>
<line x1="95" y1="124" x2="113" y2="124" stroke="#FCC419" stroke-width="4"/>
<path d="M77.7373 74.8516C78.6609 75.4626 80.4897 76.7232 82.3613 78.2969C84.2027 79.8451 85.8479 81.5006 86.8047 82.9854L86.9863 83.2803C90.8114 89.7561 97.0507 97.4999 106.555 97.5H214.539C225.066 97.5 232.857 107.207 230.682 117.421L230.57 117.907L220.82 157.907C219.019 165.298 212.397 170.5 204.789 170.5H120.84C113.298 170.5 106.743 165.416 104.855 158.151L104.769 157.804C101.848 145.482 97.6542 127.868 94.0527 113.059C92.2524 105.656 90.5977 98.9429 89.3232 93.9395C88.6866 91.4401 88.1405 89.3507 87.7168 87.8096C87.5056 87.0414 87.3192 86.3879 87.1631 85.8789C87.0574 85.5343 86.9001 85.0294 86.7129 84.6094L86.6309 84.4346L86.4746 84.1445C86.0877 83.4712 85.5527 82.8277 85.1064 82.3223C84.5323 81.672 83.8278 80.9471 83.0596 80.1943C81.9041 79.0621 80.532 77.7951 79.1006 76.5117L77.6553 75.2275C77.6318 75.2068 77.6182 75.1912 77.6113 75.1826C77.6047 75.1743 77.6012 75.1701 77.6006 75.1689C77.6005 75.1687 77.5999 75.1675 77.5986 75.1602C77.5945 75.1365 77.5927 75.0622 77.6357 74.9668C77.665 74.902 77.6978 74.8666 77.7148 74.8506C77.7209 74.8508 77.7283 74.8506 77.7373 74.8516Z" stroke="#FCC419" stroke-width="7"/>
<path d="M220 196.5C220 196.5 111.998 196.501 105.5 196.5C99.0018 196.499 89.4986 196.999 89 184.999C88.5014 173 99.5032 170.499 103 170.499C106.497 170.499 132.004 170.5 132.004 170.5" stroke="#FCC419" stroke-width="7"/>
<circle cx="219.5" cy="196.5" r="3.5" fill="#FCC419"/>
<circle cx="115" cy="143" r="2" fill="#FCC419"/>
<circle cx="115" cy="143" r="2" fill="#FCC419"/>
<circle cx="115" cy="143" r="2" fill="#FCC419"/>
<circle cx="115" cy="143" r="2" fill="#FCC419"/>
<circle cx="210" cy="124" r="2" fill="#FCC419"/>
<circle cx="210" cy="124" r="2" fill="#FCC419"/>
<circle cx="210" cy="124" r="2" fill="#FCC419"/>
<circle cx="210" cy="124" r="2" fill="#FCC419"/>
<circle cx="210" cy="144" r="2" fill="#FCC419"/>
<circle cx="210" cy="144" r="2" fill="#FCC419"/>
<circle cx="210" cy="144" r="2" fill="#FCC419"/>
<circle cx="210" cy="144" r="2" fill="#FCC419"/>
<circle cx="113" cy="124" r="2" fill="#FCC419"/>
<circle cx="113" cy="124" r="2" fill="#FCC419"/>
<circle cx="113" cy="124" r="2" fill="#FCC419"/>
<circle cx="113" cy="124" r="2" fill="#FCC419"/>
<circle cx="109.5" cy="220.5" r="17.5" fill="#FCC419"/>
<circle cx="206.5" cy="220.5" r="17.5" fill="#FCC419"/>
</svg>
