<svg width="283" height="313" viewBox="0 0 283 313" fill="none" xmlns="http://www.w3.org/2000/svg">
<g filter="url(#filter0_d_2369_275)">
<path d="M129.5 21.4395C136.548 17.9021 144.809 17.7609 151.959 21.0254L152.647 21.3525L221.236 55.126C229.983 59.4333 235.574 68.2651 235.747 77.9883L235.751 78.4512V146.178C235.75 155.814 230.422 164.647 221.929 169.148L221.522 169.359L152.938 204.187C145.479 207.974 136.652 207.941 129.222 204.099L62.4723 169.491C53.986 165.091 48.6091 156.398 48.443 146.864L48.4391 146.409V78.2227C48.4391 68.4111 53.9619 59.4356 62.7174 55.0137L129.5 21.4395Z" fill="#FFF9DB"/>
<path d="M129.5 21.4395C136.548 17.9021 144.809 17.7609 151.959 21.0254L152.647 21.3525L221.236 55.126C229.983 59.4333 235.574 68.2651 235.747 77.9883L235.751 78.4512V146.178C235.75 155.814 230.422 164.647 221.929 169.148L221.522 169.359L152.938 204.187C145.479 207.974 136.652 207.941 129.222 204.099L62.4723 169.491C53.986 165.091 48.6091 156.398 48.443 146.864L48.4391 146.409V78.2227C48.4391 68.4111 53.9619 59.4356 62.7174 55.0137L129.5 21.4395Z" stroke="black" stroke-width="28"/>
<path d="M129.5 21.4395C136.548 17.9021 144.809 17.7609 151.959 21.0254L152.647 21.3525L221.236 55.126C229.983 59.4333 235.574 68.2651 235.747 77.9883L235.751 78.4512V146.178C235.75 155.814 230.422 164.647 221.929 169.148L221.522 169.359L152.938 204.187C145.479 207.974 136.652 207.941 129.222 204.099L62.4723 169.491C53.986 165.091 48.6091 156.398 48.443 146.864L48.4391 146.409V78.2227C48.4391 68.4111 53.9619 59.4356 62.7174 55.0137L129.5 21.4395Z" stroke="black" stroke-opacity="0.2" stroke-width="28"/>
<path d="M217.207 114.307V121.279H214.521V168.564H69.2208V121.279H66.5352V114.307H217.207Z" fill="#F7B912" stroke="black" stroke-width="6"/>
<path d="M140.528 84.1791C143.883 84.1791 147.108 84.8382 150.062 85.8989L150.649 86.1166C152.354 86.767 154.885 88.0287 157.353 89.4662C159.701 90.8331 161.743 92.2146 162.884 93.2182L163.099 93.4135C166.13 96.2464 171.332 101.135 174.681 106.683V113.329H109.06V106.576C109.835 105.167 111.535 102.815 113.608 100.257C115.613 97.7842 117.723 95.4158 119.17 93.9731L119.748 93.4135C120.706 92.5178 122.574 91.0518 124.776 89.6C126.987 88.1424 129.335 86.8315 131.252 86.1313L131.272 86.1235L131.292 86.1166C134.573 84.865 136.742 84.257 139.886 84.186L140.528 84.1791Z" fill="#F7B912" stroke="black" stroke-width="6"/>
<path d="M140.976 93.2433C146.889 93.2434 152.034 97.7716 152.034 103.775C152.034 109.779 146.889 114.308 140.976 114.308C135.063 114.308 129.919 109.779 129.918 103.775C129.918 97.7715 135.063 93.2433 140.976 93.2433Z" fill="#FFF9DB" stroke="black" stroke-width="6"/>
<line x1="121.756" y1="159.011" x2="121.756" y2="122.187" stroke="black" stroke-width="8"/>
<line x1="161.148" y1="159.011" x2="161.148" y2="122.187" stroke="black" stroke-width="8"/>
<line x1="141.452" y1="159.011" x2="141.452" y2="122.187" stroke="black" stroke-width="8"/>
<rect x="116.804" y="121.35" width="10.7432" height="4.18449" fill="black"/>
<rect x="156.195" y="154.826" width="10.7432" height="4.18449" fill="black"/>
<rect x="136.499" y="154.826" width="10.7432" height="4.18449" fill="black"/>
<rect x="156.195" y="121.35" width="10.7432" height="4.18449" fill="black"/>
<rect x="136.499" y="121.35" width="10.7432" height="4.18449" fill="black"/>
<rect x="116.804" y="154.826" width="10.7432" height="4.18449" fill="black"/>
<path d="M201.406 144.273C202.952 144.273 204.029 144.976 204.777 145.753C205.156 146.146 205.433 146.543 205.613 146.84C205.636 146.877 205.654 146.914 205.673 146.947V157.01H197.14V146.947C197.159 146.914 197.177 146.877 197.199 146.84C197.379 146.543 197.657 146.146 198.035 145.753C198.783 144.976 199.861 144.273 201.406 144.273ZM184.397 144.273C185.942 144.273 187.02 144.976 187.768 145.753C188.146 146.145 188.423 146.543 188.604 146.84C188.626 146.877 188.644 146.914 188.663 146.947V157.01H180.129V146.949C180.148 146.915 180.167 146.878 180.189 146.84C180.37 146.543 180.647 146.146 181.025 145.753C181.773 144.976 182.851 144.273 184.397 144.273ZM99.794 144.273C101.339 144.273 102.417 144.976 103.165 145.753C103.543 146.145 103.82 146.543 104 146.84C104.023 146.878 104.041 146.915 104.061 146.949V157.01H95.5264V146.949C95.5457 146.915 95.5641 146.878 95.5869 146.84C95.7671 146.543 96.0437 146.145 96.4219 145.753C97.1698 144.976 98.2485 144.273 99.794 144.273ZM82.7832 144.273C84.3287 144.273 85.4064 144.976 86.1543 145.753C86.5327 146.146 86.81 146.543 86.9903 146.84C87.0131 146.878 87.0315 146.915 87.0508 146.949V157.01H78.5166V146.947C78.5357 146.914 78.5538 146.877 78.5762 146.84C78.7564 146.543 79.0339 146.145 79.4121 145.753C80.16 144.976 81.2379 144.273 82.7832 144.273ZM95.3643 147.247L95.3633 147.25C95.3626 147.251 95.3619 147.253 95.3614 147.255C95.3605 147.257 95.3597 147.258 95.3594 147.258C95.3598 147.257 95.3607 147.255 95.3623 147.252L95.3643 147.247ZM104.225 147.252C104.226 147.255 104.227 147.257 104.228 147.258C104.227 147.258 104.226 147.257 104.226 147.255L104.225 147.252ZM179.968 147.246L179.967 147.247L179.966 147.25C179.965 147.251 179.964 147.253 179.964 147.255C179.963 147.257 179.962 147.258 179.962 147.258C179.962 147.258 179.963 147.255 179.965 147.252C179.966 147.25 179.966 147.247 179.967 147.245L179.968 147.246ZM201.406 124.187C202.952 124.187 204.029 124.89 204.777 125.667C205.156 126.06 205.433 126.457 205.613 126.755C205.636 126.791 205.654 126.828 205.673 126.861V136.925H197.14V126.861C197.159 126.828 197.177 126.791 197.199 126.755C197.379 126.457 197.657 126.06 198.035 125.667C198.783 124.89 199.861 124.187 201.406 124.187ZM184.397 124.187C185.942 124.187 187.02 124.89 187.768 125.667C188.146 126.06 188.423 126.457 188.604 126.755C188.626 126.791 188.644 126.828 188.663 126.861V136.925H180.129V126.863C180.148 126.829 180.167 126.792 180.189 126.755C180.37 126.457 180.647 126.06 181.025 125.667C181.773 124.89 182.851 124.187 184.397 124.187ZM99.794 124.187C101.339 124.187 102.417 124.89 103.165 125.667C103.543 126.059 103.82 126.457 104 126.755C104.023 126.792 104.041 126.829 104.061 126.863V136.925H95.5264V126.863C95.5457 126.829 95.5642 126.792 95.5869 126.755C95.7672 126.457 96.0437 126.06 96.4219 125.667C97.1698 124.89 98.2485 124.187 99.794 124.187ZM82.7832 124.187C84.3286 124.187 85.4064 124.89 86.1543 125.667C86.5327 126.06 86.81 126.457 86.9903 126.755C87.0131 126.792 87.0315 126.829 87.0508 126.863V136.925H78.5166V126.861C78.5357 126.828 78.5538 126.791 78.5762 126.755C78.7564 126.457 79.0338 126.06 79.4121 125.667C80.16 124.89 81.2379 124.187 82.7832 124.187ZM87.2149 127.166C87.2172 127.171 87.2178 127.173 87.2178 127.173C87.2176 127.173 87.2169 127.171 87.2159 127.169C87.2154 127.167 87.2146 127.166 87.2139 127.165L87.2129 127.162L87.2119 127.16V127.159C87.2132 127.161 87.214 127.164 87.2149 127.166ZM95.3643 127.162L95.3633 127.165C95.3626 127.166 95.3619 127.167 95.3614 127.169C95.3603 127.171 95.3597 127.173 95.3594 127.173C95.3594 127.173 95.36 127.171 95.3623 127.166C95.363 127.164 95.3635 127.163 95.3643 127.161V127.162ZM179.968 127.16L179.967 127.162L179.966 127.165C179.965 127.166 179.964 127.167 179.964 127.169C179.963 127.171 179.962 127.173 179.962 127.173C179.962 127.173 179.963 127.171 179.965 127.166C179.966 127.164 179.966 127.161 179.967 127.159L179.968 127.16Z" fill="#FFF9DB" stroke="black" stroke-width="4"/>
<path d="M125.658 20.1981C134.851 15.5356 145.646 15.3037 155.01 19.5262L155.913 19.9481L218.807 50.5507C230.507 56.2431 237.931 68.1132 237.931 81.1239V142.559C237.931 155.294 230.818 166.943 219.532 172.769L218.992 173.043L156.101 204.113C146.732 208.742 135.773 208.798 126.379 204.307L125.475 203.857L66.0349 173.247C54.7153 167.418 47.6013 155.752 47.6013 143.019V80.6659C47.6013 68.0578 54.5762 56.5031 65.6902 50.619L66.2224 50.3427L125.658 20.1981Z" stroke="#FFE600" stroke-width="12"/>
<path d="M167.52 74.7576V87.1112C167.348 86.9727 167.178 86.8376 167.011 86.7059L166.515 86.3211C164.41 84.7237 163.06 83.6791 160.848 82.4285L159.842 81.8778C159.073 81.4692 158.106 81.0182 157.37 80.6854C156.994 80.5152 156.662 80.3687 156.424 80.2645C156.305 80.2124 156.209 80.1704 156.142 80.1414C156.108 80.127 156.082 80.1161 156.063 80.1082C156.054 80.1043 156.047 80.1006 156.042 80.0985C156.04 80.0975 156.038 80.0971 156.036 80.0965L156.034 80.0955H156.033L154.853 82.8533L156.033 80.0946L155.997 80.0799L155.96 80.0653L155.24 81.8778C155.96 80.065 155.96 80.0643 155.96 80.0643H155.959L155.957 80.0633C155.956 80.0627 155.953 80.0623 155.951 80.0614C155.946 80.0593 155.939 80.0561 155.93 80.0526C155.912 80.0454 155.885 80.0352 155.853 80.0223C155.786 79.9963 155.691 79.9592 155.573 79.9139C155.338 79.8234 155.01 79.6986 154.635 79.5604C154.087 79.3588 153.395 79.1125 152.73 78.9032L152.081 78.7088C150.805 78.351 149.91 78.1572 148.84 77.9764L147.691 77.7948C146.138 77.5597 145.063 77.4683 143.796 77.4041L142.439 77.3446C140.989 77.2861 139.868 77.1988 138.28 77.2996L137.568 77.3543C135.815 77.515 132.998 78.0756 131.134 78.5106L130.399 78.6873C129.015 79.0341 128.296 79.3037 127.401 79.6698L126.416 80.0741C125.125 80.5996 124.045 81.141 123.311 81.5076L122.695 81.8094C121.967 82.1498 120.833 82.8977 119.773 83.6512C118.648 84.4514 117.356 85.439 116.223 86.409V74.7821L142.3 63.5311L167.52 74.7576Z" fill="#F7B912" stroke="black" stroke-width="6"/>
<path d="M191.923 65.0608L175.242 69.632L143.545 55.427L142.335 54.884L141.12 55.4143L108.517 69.6369L91.8177 65.0608L141.87 43.4387L191.923 65.0608Z" fill="#F7B912" stroke="black" stroke-width="6"/>
<path d="M184.739 59.6658V79.1697H180.472V57.8738L184.739 59.6658Z" fill="#F7B912" stroke="black" stroke-width="2"/>
<rect x="177.786" y="79.6684" width="9.63846" height="14.738" rx="1" fill="#F7B912" stroke="black" stroke-width="2"/>
<path d="M12.0616 265V237H17.2616V260.6H31.9016V265H12.0616ZM40.8069 248.64H54.7269V252.92H40.8069V248.64ZM41.2069 260.64H57.0069V265H36.0069V237H56.4469V241.36H41.2069V260.64ZM62.8038 265V237H74.3238C76.8038 237 78.9238 237.4 80.6838 238.2C82.4705 239 83.8438 240.147 84.8038 241.64C85.7638 243.133 86.2438 244.907 86.2438 246.96C86.2438 249.013 85.7638 250.787 84.8038 252.28C83.8438 253.747 82.4705 254.88 80.6838 255.68C78.9238 256.453 76.8038 256.84 74.3238 256.84H65.6838L68.0038 254.48V265H62.8038ZM81.1238 265L74.0438 254.84H79.6038L86.7238 265H81.1238ZM68.0038 255.04L65.6838 252.56H74.0838C76.3772 252.56 78.0972 252.067 79.2438 251.08C80.4172 250.093 81.0038 248.72 81.0038 246.96C81.0038 245.173 80.4172 243.8 79.2438 242.84C78.0972 241.88 76.3772 241.4 74.0838 241.4H65.6838L68.0038 238.84V255.04ZM92.0616 265V237H96.3416L113.902 258.56H111.782V237H116.942V265H112.662L95.1016 243.44H97.2216V265H92.0616ZM124.444 265V237H129.644V265H124.444ZM145.303 265L133.063 237H138.703L149.623 262.32H146.383L157.423 237H162.623L150.423 265H145.303ZM170.377 248.64H184.297V252.92H170.377V248.64ZM170.777 260.64H186.577V265H165.577V237H186.017V241.36H170.777V260.64ZM192.374 265V237H203.894C206.374 237 208.494 237.4 210.254 238.2C212.041 239 213.414 240.147 214.374 241.64C215.334 243.133 215.814 244.907 215.814 246.96C215.814 249.013 215.334 250.787 214.374 252.28C213.414 253.747 212.041 254.88 210.254 255.68C208.494 256.453 206.374 256.84 203.894 256.84H195.254L197.574 254.48V265H192.374ZM210.694 265L203.614 254.84H209.174L216.294 265H210.694ZM197.574 255.04L195.254 252.56H203.654C205.947 252.56 207.667 252.067 208.814 251.08C209.987 250.093 210.574 248.72 210.574 246.96C210.574 245.173 209.987 243.8 208.814 242.84C207.667 241.88 205.947 241.4 203.654 241.4H195.254L197.574 238.84V255.04ZM230.312 265.4C228.125 265.4 226.032 265.093 224.032 264.48C222.032 263.84 220.445 263.027 219.272 262.04L221.072 258C222.192 258.88 223.579 259.613 225.232 260.2C226.885 260.787 228.579 261.08 230.312 261.08C231.779 261.08 232.965 260.92 233.872 260.6C234.779 260.28 235.445 259.853 235.872 259.32C236.299 258.76 236.512 258.133 236.512 257.44C236.512 256.587 236.205 255.907 235.592 255.4C234.979 254.867 234.179 254.453 233.192 254.16C232.232 253.84 231.152 253.547 229.952 253.28C228.779 253.013 227.592 252.707 226.392 252.36C225.219 251.987 224.139 251.52 223.152 250.96C222.192 250.373 221.405 249.6 220.792 248.64C220.179 247.68 219.872 246.453 219.872 244.96C219.872 243.44 220.272 242.053 221.072 240.8C221.899 239.52 223.139 238.507 224.792 237.76C226.472 236.987 228.592 236.6 231.152 236.6C232.832 236.6 234.499 236.813 236.152 237.24C237.805 237.667 239.245 238.28 240.472 239.08L238.832 243.12C237.579 242.373 236.285 241.827 234.952 241.48C233.619 241.107 232.339 240.92 231.112 240.92C229.672 240.92 228.499 241.093 227.592 241.44C226.712 241.787 226.059 242.24 225.632 242.8C225.232 243.36 225.032 244 225.032 244.72C225.032 245.573 225.325 246.267 225.912 246.8C226.525 247.307 227.312 247.707 228.272 248C229.259 248.293 230.352 248.587 231.552 248.88C232.752 249.147 233.939 249.453 235.112 249.8C236.312 250.147 237.392 250.6 238.352 251.16C239.339 251.72 240.125 252.48 240.712 253.44C241.325 254.4 241.632 255.613 241.632 257.08C241.632 258.573 241.219 259.96 240.392 261.24C239.592 262.493 238.352 263.507 236.672 264.28C234.992 265.027 232.872 265.4 230.312 265.4ZM251.588 248.64H265.508V252.92H251.588V248.64ZM251.988 260.64H267.788V265H246.788V237H267.228V241.36H251.988V260.64Z" fill="black"/>
<path d="M84.8416 293.3C83.2416 293.3 81.7516 293.04 80.3716 292.52C79.0116 291.98 77.8216 291.23 76.8016 290.27C75.8016 289.29 75.0216 288.14 74.4616 286.82C73.9016 285.5 73.6216 284.06 73.6216 282.5C73.6216 280.94 73.9016 279.5 74.4616 278.18C75.0216 276.86 75.8116 275.72 76.8316 274.76C77.8516 273.78 79.0416 273.03 80.4016 272.51C81.7616 271.97 83.2516 271.7 84.8716 271.7C86.5916 271.7 88.1616 272 89.5816 272.6C91.0016 273.18 92.2016 274.05 93.1816 275.21L90.6616 277.58C89.9016 276.76 89.0516 276.15 88.1116 275.75C87.1716 275.33 86.1516 275.12 85.0516 275.12C83.9516 275.12 82.9416 275.3 82.0216 275.66C81.1216 276.02 80.3316 276.53 79.6516 277.19C78.9916 277.85 78.4716 278.63 78.0916 279.53C77.7316 280.43 77.5516 281.42 77.5516 282.5C77.5516 283.58 77.7316 284.57 78.0916 285.47C78.4716 286.37 78.9916 287.15 79.6516 287.81C80.3316 288.47 81.1216 288.98 82.0216 289.34C82.9416 289.7 83.9516 289.88 85.0516 289.88C86.1516 289.88 87.1716 289.68 88.1116 289.28C89.0516 288.86 89.9016 288.23 90.6616 287.39L93.1816 289.79C92.2016 290.93 91.0016 291.8 89.5816 292.4C88.1616 293 86.5816 293.3 84.8416 293.3ZM103.143 293.21C101.503 293.21 100.043 292.86 98.7633 292.16C97.4833 291.44 96.4733 290.46 95.7333 289.22C94.9933 287.98 94.6233 286.57 94.6233 284.99C94.6233 283.39 94.9933 281.98 95.7333 280.76C96.4733 279.52 97.4833 278.55 98.7633 277.85C100.043 277.15 101.503 276.8 103.143 276.8C104.803 276.8 106.273 277.15 107.553 277.85C108.853 278.55 109.863 279.51 110.583 280.73C111.323 281.95 111.693 283.37 111.693 284.99C111.693 286.57 111.323 287.98 110.583 289.22C109.863 290.46 108.853 291.44 107.553 292.16C106.273 292.86 104.803 293.21 103.143 293.21ZM103.143 290C104.063 290 104.883 289.8 105.603 289.4C106.323 289 106.883 288.42 107.283 287.66C107.703 286.9 107.913 286.01 107.913 284.99C107.913 283.95 107.703 283.06 107.283 282.32C106.883 281.56 106.323 280.98 105.603 280.58C104.883 280.18 104.073 279.98 103.173 279.98C102.253 279.98 101.433 280.18 100.713 280.58C100.013 280.98 99.4533 281.56 99.0333 282.32C98.6133 283.06 98.4033 283.95 98.4033 284.99C98.4033 286.01 98.6133 286.9 99.0333 287.66C99.4533 288.42 100.013 289 100.713 289.4C101.433 289.8 102.243 290 103.143 290ZM124.369 276.8C125.649 276.8 126.789 277.05 127.789 277.55C128.809 278.05 129.609 278.82 130.189 279.86C130.769 280.88 131.059 282.2 131.059 283.82V293H127.309V284.3C127.309 282.88 126.969 281.82 126.289 281.12C125.629 280.42 124.699 280.07 123.499 280.07C122.619 280.07 121.839 280.25 121.159 280.61C120.479 280.97 119.949 281.51 119.569 282.23C119.209 282.93 119.029 283.82 119.029 284.9V293H115.279V276.98H118.849V281.3L118.219 279.98C118.779 278.96 119.589 278.18 120.649 277.64C121.729 277.08 122.969 276.8 124.369 276.8ZM144.906 276.8C146.186 276.8 147.326 277.05 148.326 277.55C149.346 278.05 150.146 278.82 150.726 279.86C151.306 280.88 151.596 282.2 151.596 283.82V293H147.846V284.3C147.846 282.88 147.506 281.82 146.826 281.12C146.166 280.42 145.236 280.07 144.036 280.07C143.156 280.07 142.376 280.25 141.696 280.61C141.016 280.97 140.486 281.51 140.106 282.23C139.746 282.93 139.566 283.82 139.566 284.9V293H135.816V276.98H139.386V281.3L138.756 279.98C139.316 278.96 140.126 278.18 141.186 277.64C142.266 277.08 143.506 276.8 144.906 276.8ZM163.913 293.21C162.133 293.21 160.573 292.86 159.233 292.16C157.913 291.44 156.883 290.46 156.143 289.22C155.423 287.98 155.063 286.57 155.063 284.99C155.063 283.39 155.413 281.98 156.113 280.76C156.833 279.52 157.813 278.55 159.053 277.85C160.313 277.15 161.743 276.8 163.343 276.8C164.903 276.8 166.293 277.14 167.513 277.82C168.733 278.5 169.693 279.46 170.393 280.7C171.093 281.94 171.443 283.4 171.443 285.08C171.443 285.24 171.433 285.42 171.413 285.62C171.413 285.82 171.403 286.01 171.383 286.19H158.033V283.7H169.403L167.933 284.48C167.953 283.56 167.763 282.75 167.363 282.05C166.963 281.35 166.413 280.8 165.713 280.4C165.033 280 164.243 279.8 163.343 279.8C162.423 279.8 161.613 280 160.913 280.4C160.233 280.8 159.693 281.36 159.293 282.08C158.913 282.78 158.723 283.61 158.723 284.57V285.17C158.723 286.13 158.943 286.98 159.383 287.72C159.823 288.46 160.443 289.03 161.243 289.43C162.043 289.83 162.963 290.03 164.003 290.03C164.903 290.03 165.713 289.89 166.433 289.61C167.153 289.33 167.793 288.89 168.353 288.29L170.363 290.6C169.643 291.44 168.733 292.09 167.633 292.55C166.553 292.99 165.313 293.21 163.913 293.21ZM182.395 293.21C180.715 293.21 179.215 292.86 177.895 292.16C176.595 291.44 175.575 290.46 174.835 289.22C174.095 287.98 173.725 286.57 173.725 284.99C173.725 283.39 174.095 281.98 174.835 280.76C175.575 279.52 176.595 278.55 177.895 277.85C179.215 277.15 180.715 276.8 182.395 276.8C183.955 276.8 185.325 277.12 186.505 277.76C187.705 278.38 188.615 279.3 189.235 280.52L186.355 282.2C185.875 281.44 185.285 280.88 184.585 280.52C183.905 280.16 183.165 279.98 182.365 279.98C181.445 279.98 180.615 280.18 179.875 280.58C179.135 280.98 178.555 281.56 178.135 282.32C177.715 283.06 177.505 283.95 177.505 284.99C177.505 286.03 177.715 286.93 178.135 287.69C178.555 288.43 179.135 289 179.875 289.4C180.615 289.8 181.445 290 182.365 290C183.165 290 183.905 289.82 184.585 289.46C185.285 289.1 185.875 288.54 186.355 287.78L189.235 289.46C188.615 290.66 187.705 291.59 186.505 292.25C185.325 292.89 183.955 293.21 182.395 293.21ZM198.712 293.21C196.952 293.21 195.592 292.76 194.632 291.86C193.672 290.94 193.192 289.59 193.192 287.81V273.44H196.942V287.72C196.942 288.48 197.132 289.07 197.512 289.49C197.912 289.91 198.462 290.12 199.162 290.12C200.002 290.12 200.702 289.9 201.262 289.46L202.312 292.13C201.872 292.49 201.332 292.76 200.692 292.94C200.052 293.12 199.392 293.21 198.712 293.21ZM190.552 280.1V277.1H201.232V280.1H190.552Z" fill="black"/>
<rect x="225.631" y="279.187" width="52.716" height="6.53209" rx="3.26604" fill="#FFE600" stroke="black"/>
<rect x="4.5" y="279.187" width="52.716" height="6.53209" rx="3.26604" fill="#FFE600" stroke="black"/>
</g>
<defs>
<filter id="filter0_d_2369_275" x="0" y="4.44636" width="282.847" height="296.854" filterUnits="userSpaceOnUse" color-interpolation-filters="sRGB">
<feFlood flood-opacity="0" result="BackgroundImageFix"/>
<feColorMatrix in="SourceAlpha" type="matrix" values="0 0 0 0 0 0 0 0 0 0 0 0 0 0 0 0 0 0 127 0" result="hardAlpha"/>
<feOffset dy="4"/>
<feGaussianBlur stdDeviation="2"/>
<feComposite in2="hardAlpha" operator="out"/>
<feColorMatrix type="matrix" values="0 0 0 0 0 0 0 0 0 0 0 0 0 0 0 0 0 0 0.25 0"/>
<feBlend mode="normal" in2="BackgroundImageFix" result="effect1_dropShadow_2369_275"/>
<feBlend mode="normal" in="SourceGraphic" in2="effect1_dropShadow_2369_275" result="shape"/>
</filter>
</defs>
</svg>
