<svg width="300" height="300" viewBox="0 0 300 300" fill="none" xmlns="http://www.w3.org/2000/svg">
<path d="M0 150C0 67.1573 67.1573 0 150 0C232.843 0 300 67.1573 300 150C300 232.843 232.843 300 150 300C67.1573 300 0 232.843 0 150Z" fill="#FFF9DB"/>
<path d="M8.21899 150C8.21899 71.6966 71.6965 8.21913 150 8.21913C228.303 8.21913 291.781 71.6966 291.781 150C291.781 228.303 228.303 291.781 150 291.781C71.6965 291.781 8.21899 228.303 8.21899 150Z" fill="black"/>
<path d="M16.4404 150C16.4404 76.2359 76.238 16.4383 150.002 16.4383C223.766 16.4383 283.564 76.2359 283.564 150C283.564 223.764 223.766 283.562 150.002 283.562C76.238 283.562 16.4404 223.764 16.4404 150Z" fill="#FFF9DB"/>
<path d="M152.055 43.0959C180.61 43.096 203.48 64.4277 203.48 90.4114C203.48 116.395 180.61 137.726 152.055 137.726C123.501 137.726 100.631 116.395 100.63 90.4114C100.63 64.4277 123.5 43.0959 152.055 43.0959Z" stroke="black" stroke-width="4"/>
<path d="M150.888 156.412C204.188 156.412 248.115 198.025 248.587 247.141C230.325 266.087 201.748 286.568 150.863 289.174C103.383 288.297 74.8269 271.216 51.4224 248.857C51.9434 199.739 97.6084 156.412 150.888 156.412Z" stroke="black" stroke-width="4"/>
</svg>
